<svg width="161" height="72" viewBox="0 0 161 72" fill="none" xmlns="http://www.w3.org/2000/svg">
<rect width="161" height="72" fill="white"/>
<path d="M28.75 23.8008H12.7539C12.194 23.8008 11.9141 23.599 11.9141 23.1953C11.9141 23.013 12.0443 22.681 12.3047 22.1992C12.5651 21.7174 12.8711 21.3203 13.2227 21.0078C13.5221 20.7344 14.0039 20.5977 14.668 20.5977H30.6641C31.224 20.5977 31.5039 20.7995 31.5039 21.2031C31.5039 21.3854 31.3737 21.7174 31.1133 22.1992C30.8529 22.681 30.5469 23.0781 30.1953 23.3906C29.8958 23.6641 29.4141 23.8008 28.75 23.8008ZM19.3945 47.3555L19.375 26.1445C19.375 25.6758 19.5312 25.3698 19.8438 25.2266C20.1693 25.0703 20.6641 24.9922 21.3281 24.9922C22.0573 24.9922 22.5651 25.0703 22.8516 25.2266C23.151 25.3698 23.3008 25.6758 23.3008 26.1445V45.2852C23.3008 45.8451 23.1706 46.2812 22.9102 46.5938C22.5716 46.9974 22.1029 47.3685 21.5039 47.707C20.918 48.0326 20.4427 48.1953 20.0781 48.1953C19.6224 48.1953 19.3945 47.9154 19.3945 47.3555ZM44.5281 47.3945C44.2286 47.7461 43.851 48.0326 43.3953 48.2539C42.9396 48.4883 42.5685 48.6055 42.282 48.6055C41.8654 48.6055 41.657 48.3971 41.657 47.9805C41.657 47.8372 41.6831 47.694 41.7352 47.5508L46.2859 32.8828C46.4161 32.4531 46.618 32.2383 46.8914 32.2383C47.256 32.2383 47.6792 33.1302 48.1609 34.9141C48.2521 35.2656 48.2977 35.6172 48.2977 35.9688C48.2977 36.3854 48.2 36.9453 48.0047 37.6484L45.6805 45.4414C45.4852 46.0924 45.101 46.7435 44.5281 47.3945ZM42.1258 42.8047C41.9565 43.4297 41.7286 43.9505 41.4422 44.3672C41.1688 44.7839 40.9279 44.9922 40.7195 44.9922C40.5242 44.9922 40.368 44.9141 40.2508 44.7578C40.1336 44.5885 40.0099 44.2956 39.8797 43.8789L36.0516 30.207C35.9865 29.9987 35.9539 29.7904 35.9539 29.582C35.9539 29.1003 36.2729 28.6185 36.9109 28.1367C37.562 27.6419 38.0893 27.3945 38.493 27.3945C38.8706 27.3945 39.1375 27.6745 39.2938 28.2344L42.282 39.3672C42.4122 39.875 42.4773 40.3503 42.4773 40.793C42.4773 41.3268 42.3602 41.9974 42.1258 42.8047ZM57.3211 47.3164C56.9956 47.707 56.6115 48.0195 56.1688 48.2539C55.726 48.4883 55.3159 48.6055 54.9383 48.6055C54.5216 48.6055 54.3133 48.3906 54.3133 47.9609C54.3133 47.8307 54.3328 47.694 54.3719 47.5508L59.6844 29.9141C59.8406 29.3672 60.0294 28.931 60.2508 28.6055C60.5112 28.2409 60.9148 27.9479 61.4617 27.7266C62.0216 27.5052 62.5229 27.3945 62.9656 27.3945C63.1479 27.3945 63.2911 27.4466 63.3953 27.5508C63.5125 27.6549 63.5711 27.7917 63.5711 27.9609C63.5711 28.013 63.5581 28.1042 63.532 28.2344L58.3758 45.5195C58.1414 46.1836 57.7898 46.7826 57.3211 47.3164ZM54.5281 43.5273C54.0984 45.0898 53.6622 45.8711 53.2195 45.8711C53.0372 45.8711 52.8875 45.7865 52.7703 45.6172C52.6531 45.4479 52.5294 45.1615 52.3992 44.7578L47.5359 30.1289C47.4578 29.8945 47.4188 29.6927 47.4188 29.5234C47.4188 29.0286 47.7313 28.5534 48.3563 28.0977C48.9813 27.6289 49.4891 27.3945 49.8797 27.3945C50.2443 27.3945 50.5112 27.6745 50.6805 28.2344L54.5672 40.5977C54.7104 41.0404 54.782 41.4766 54.782 41.9062C54.782 42.349 54.6974 42.8893 54.5281 43.5273ZM73.2359 35.5586C73.2359 35.9232 73.3466 36.1576 73.568 36.2617C73.8023 36.3529 74.1409 36.3984 74.5836 36.3984C75.7164 36.3984 76.6865 36.3008 77.4938 36.1055C78.301 35.9102 78.9195 35.6367 79.3492 35.2852C79.7789 34.9336 80.0849 34.5625 80.2672 34.1719C80.4625 33.7812 80.5602 33.3516 80.5602 32.8828C80.5602 32.0755 80.2802 31.431 79.7203 30.9492C79.1604 30.4544 78.262 30.207 77.025 30.207C75.0849 30.207 73.262 30.819 71.5563 32.043C71.0484 32.4206 70.7294 32.6094 70.5992 32.6094C70.3779 32.6094 70.2672 32.4857 70.2672 32.2383C70.2672 31.9128 70.456 31.5156 70.8336 31.0469C71.5367 30.1484 72.3375 29.4128 73.2359 28.8398C74.1344 28.2669 74.9547 27.8828 75.6969 27.6875C76.4391 27.4922 77.1747 27.3945 77.9039 27.3945C78.8414 27.3945 79.6878 27.4922 80.443 27.6875C81.1982 27.8828 81.8688 28.1888 82.4547 28.6055C83.0406 29.0091 83.4964 29.569 83.8219 30.2852C84.1474 30.9883 84.3102 31.8151 84.3102 32.7656C84.3102 34.7969 83.3401 36.3659 81.4 37.4727C79.4729 38.5664 76.8362 39.1133 73.4898 39.1133C72.5523 39.1133 71.4911 39.0612 70.3063 38.957C69.7203 38.918 69.4273 38.6315 69.4273 38.0977C69.4273 36.6523 69.6357 35.5716 70.0523 34.8555C70.469 34.1263 71.0094 33.5664 71.6734 33.1758C72.3245 32.7982 72.8193 32.6094 73.1578 32.6094C73.4703 32.6094 73.6266 32.8047 73.6266 33.1953C73.6266 33.3516 73.5615 33.7357 73.4313 34.3477C73.301 34.9466 73.2359 35.3503 73.2359 35.5586ZM69.5836 41.0078C69.5836 40.3307 69.8961 39.9922 70.5211 39.9922H72.2008C72.5393 39.9922 72.7737 40.0573 72.9039 40.1875C73.0471 40.3177 73.1578 40.6042 73.2359 41.0469C73.7438 44.2109 75.4755 45.793 78.4313 45.793C79.1734 45.793 79.8701 45.7018 80.5211 45.5195C81.1721 45.3372 81.6734 45.1354 82.025 44.9141C82.3896 44.6927 82.7216 44.4909 83.0211 44.3086C83.3336 44.1263 83.5615 44.0352 83.7047 44.0352C84.0042 44.0352 84.1539 44.1979 84.1539 44.5234C84.1539 44.7969 84.0042 45.1484 83.7047 45.5781C83.4052 46.0078 82.9755 46.457 82.4156 46.9258C81.8688 47.3815 81.107 47.7721 80.1305 48.0977C79.1669 48.4362 78.1188 48.6055 76.9859 48.6055C74.6422 48.6055 72.8193 47.9023 71.5172 46.4961C70.2281 45.0768 69.5836 43.2474 69.5836 41.0078ZM94.6391 35.5586C94.6391 35.9232 94.7497 36.1576 94.9711 36.2617C95.2055 36.3529 95.544 36.3984 95.9867 36.3984C97.1195 36.3984 98.0896 36.3008 98.8969 36.1055C99.7042 35.9102 100.323 35.6367 100.752 35.2852C101.182 34.9336 101.488 34.5625 101.67 34.1719C101.866 33.7812 101.963 33.3516 101.963 32.8828C101.963 32.0755 101.683 31.431 101.123 30.9492C100.564 30.4544 99.6651 30.207 98.4281 30.207C96.488 30.207 94.6651 30.819 92.9594 32.043C92.4516 32.4206 92.1326 32.6094 92.0023 32.6094C91.781 32.6094 91.6703 32.4857 91.6703 32.2383C91.6703 31.9128 91.8591 31.5156 92.2367 31.0469C92.9398 30.1484 93.7406 29.4128 94.6391 28.8398C95.5375 28.2669 96.3578 27.8828 97.1 27.6875C97.8422 27.4922 98.5779 27.3945 99.307 27.3945C100.245 27.3945 101.091 27.4922 101.846 27.6875C102.601 27.8828 103.272 28.1888 103.858 28.6055C104.444 29.0091 104.899 29.569 105.225 30.2852C105.551 30.9883 105.713 31.8151 105.713 32.7656C105.713 34.7969 104.743 36.3659 102.803 37.4727C100.876 38.5664 98.2393 39.1133 94.893 39.1133C93.9555 39.1133 92.8943 39.0612 91.7094 38.957C91.1234 38.918 90.8305 38.6315 90.8305 38.0977C90.8305 36.6523 91.0388 35.5716 91.4555 34.8555C91.8721 34.1263 92.4125 33.5664 93.0766 33.1758C93.7276 32.7982 94.2224 32.6094 94.5609 32.6094C94.8734 32.6094 95.0297 32.8047 95.0297 33.1953C95.0297 33.3516 94.9646 33.7357 94.8344 34.3477C94.7042 34.9466 94.6391 35.3503 94.6391 35.5586ZM90.9867 41.0078C90.9867 40.3307 91.2992 39.9922 91.9242 39.9922H93.6039C93.9424 39.9922 94.1768 40.0573 94.307 40.1875C94.4503 40.3177 94.5609 40.6042 94.6391 41.0469C95.1469 44.2109 96.8786 45.793 99.8344 45.793C100.577 45.793 101.273 45.7018 101.924 45.5195C102.575 45.3372 103.077 45.1354 103.428 44.9141C103.793 44.6927 104.125 44.4909 104.424 44.3086C104.737 44.1263 104.965 44.0352 105.108 44.0352C105.407 44.0352 105.557 44.1979 105.557 44.5234C105.557 44.7969 105.407 45.1484 105.108 45.5781C104.808 46.0078 104.379 46.457 103.819 46.9258C103.272 47.3815 102.51 47.7721 101.534 48.0977C100.57 48.4362 99.5219 48.6055 98.3891 48.6055C96.0453 48.6055 94.2224 47.9023 92.9203 46.4961C91.6312 45.0768 90.9867 43.2474 90.9867 41.0078ZM118.191 32.8828V39.7188C118.191 40.8385 118.256 41.7891 118.386 42.5703C118.516 43.3385 118.705 43.9635 118.952 44.4453C119.213 44.9271 119.532 45.2721 119.909 45.4805C120.3 45.6888 120.756 45.793 121.277 45.793C121.889 45.793 122.396 45.7214 122.8 45.5781C123.217 45.4219 123.562 45.2591 123.835 45.0898C124.109 44.9076 124.336 44.7448 124.519 44.6016C124.701 44.4453 124.883 44.3672 125.066 44.3672C125.235 44.3672 125.359 44.4193 125.437 44.5234C125.515 44.6146 125.554 44.7383 125.554 44.8945C125.554 45.1159 125.463 45.4349 125.28 45.8516C125.111 46.2552 124.818 46.6654 124.402 47.082C123.985 47.4857 123.432 47.8372 122.741 48.1367C122.064 48.4492 121.211 48.6055 120.183 48.6055C119.18 48.6055 118.327 48.4622 117.624 48.1758C116.934 47.8893 116.368 47.4271 115.925 46.7891C115.482 46.138 115.163 45.2982 114.968 44.2695C114.773 43.2279 114.675 41.9518 114.675 40.4414V32.8828C114.675 32.5964 114.734 32.3815 114.851 32.2383C114.981 32.082 115.137 31.9714 115.32 31.9062C115.515 31.8411 115.71 31.8086 115.905 31.8086C116.114 31.8086 116.296 31.8086 116.452 31.8086C116.687 31.8086 116.908 31.8216 117.116 31.8477C117.338 31.8607 117.527 31.9062 117.683 31.9844C117.839 32.0495 117.963 32.1536 118.054 32.2969C118.145 32.4401 118.191 32.6354 118.191 32.8828ZM113.659 28.6445V29.7578C113.659 30.0833 113.588 30.3372 113.445 30.5195C113.301 30.7018 113.028 30.793 112.624 30.793H111.706C111.251 30.793 111.023 30.6497 111.023 30.3633C111.023 30.0117 111.303 29.5299 111.863 28.918C112.435 28.306 112.891 28 113.23 28C113.516 28 113.659 28.2148 113.659 28.6445ZM118.191 24.4453V26.9648C118.191 27.3685 118.282 27.6419 118.464 27.7852C118.646 27.9284 118.9 28 119.226 28H124.46C124.916 28 125.144 28.1497 125.144 28.4492C125.144 28.7617 124.922 29.1523 124.48 29.6211C124.05 30.0898 123.62 30.4023 123.191 30.5586C122.774 30.7148 122.025 30.793 120.945 30.793H115.71C115.385 30.793 115.131 30.7214 114.948 30.5781C114.766 30.4349 114.675 30.1615 114.675 29.7578V26.0664C114.675 25.3503 114.994 24.7643 115.632 24.3086C116.27 23.8398 116.895 23.6055 117.507 23.6055C117.963 23.6055 118.191 23.8854 118.191 24.4453ZM137.738 48.6055C136.645 48.6055 135.701 48.4622 134.906 48.1758C134.125 47.9023 133.487 47.4466 132.992 46.8086C132.497 46.1576 132.133 45.3177 131.898 44.2891C131.664 43.2604 131.547 41.9909 131.547 40.4805V29.875C131.547 29.5234 131.638 29.1979 131.82 28.8984C132.016 28.5859 132.25 28.319 132.523 28.0977C132.81 27.8763 133.116 27.707 133.441 27.5898C133.78 27.4596 134.092 27.3945 134.379 27.3945C134.835 27.3945 135.062 27.6745 135.062 28.2344V39.25L135.121 40.9688C135.134 41.3464 135.154 41.6523 135.18 41.8867C135.206 42.1081 135.238 42.3099 135.277 42.4922C135.316 42.6745 135.355 42.8503 135.395 43.0195C135.447 43.1888 135.512 43.4036 135.59 43.6641C135.811 44.4453 136.234 44.9987 136.859 45.3242C137.484 45.6367 138.272 45.793 139.223 45.793C140.199 45.793 141.13 45.5391 142.016 45.0312C142.263 44.888 142.432 44.8164 142.523 44.8164C142.719 44.8164 142.816 45.0573 142.816 45.5391C142.816 46.0729 142.628 46.5352 142.25 46.9258C141.872 47.3034 141.417 47.6159 140.883 47.8633C140.349 48.1107 139.789 48.293 139.203 48.4102C138.63 48.5404 138.142 48.6055 137.738 48.6055ZM147.309 28.2344V51.9648C147.309 52.9414 147.185 53.8398 146.938 54.6602C146.69 55.4935 146.378 56.1641 146 56.6719C145.635 57.1927 145.232 57.6354 144.789 58C144.346 58.3646 143.943 58.6185 143.578 58.7617C143.227 58.918 142.921 58.9961 142.66 58.9961C142.452 58.9961 142.348 58.9049 142.348 58.7227C142.348 58.6055 142.452 58.4036 142.66 58.1172C143.103 57.5052 143.402 56.7305 143.559 55.793C143.728 54.8685 143.812 53.6185 143.812 52.043L143.773 29.9141C143.773 29.4062 143.897 29.0091 144.145 28.7227C144.483 28.332 144.88 28.013 145.336 27.7656C145.805 27.5182 146.234 27.3945 146.625 27.3945C147.081 27.3945 147.309 27.6745 147.309 28.2344ZM135.824 56.0078C136.293 56.3594 136.729 56.6068 137.133 56.75C137.536 56.9062 138.031 56.9844 138.617 56.9844C139.138 56.9844 139.73 56.9128 140.395 56.7695C141.072 56.6263 141.43 56.5547 141.469 56.5547C141.807 56.5547 141.977 56.7174 141.977 57.043C141.977 57.6419 141.469 58.2474 140.453 58.8594C139.438 59.4844 138.344 59.7969 137.172 59.7969C136.026 59.7969 134.939 59.556 133.91 59.0742C132.895 58.5924 132.387 58.1172 132.387 57.6484C132.387 57.1797 132.654 56.737 133.188 56.3203C133.799 55.8125 134.301 55.5586 134.691 55.5586C135.082 55.5586 135.46 55.7083 135.824 56.0078Z" fill="#A70D60"/>
<path d="M36.58 53.8155C37.1642 53.9027 37.753 53.9718 38.3431 54.0251L38.317 56.611L41.5163 54.169C48.1887 54.1978 54.1858 52.6295 54.1858 52.6295C53.3485 55.059 52.027 57.8687 50.1089 59.8666L47.3059 60.2536L48.4797 61.5891C45.4127 64.3934 41.4803 66.1246 36.8661 66.5521L33.2906 63.8482L33.5386 66.6188C31.14 66.4801 29.4146 65.9844 27.581 64.9254C20.5596 60.8705 23.941 50.387 32.1618 52.761C33.7788 53.228 34.9339 53.4697 36.58 53.8155V53.8155Z" fill="#FFC7D9"/>
<path d="M48.4797 61.5892L47.3059 60.2537L50.1089 59.8667C52.027 57.8688 53.3485 55.0591 54.1857 52.6296C54.1857 52.6296 52.9984 52.9399 51.0936 53.282C48.1682 58.3091 42.9669 61.7129 37.2553 62.6341C32.6683 63.3739 26.5632 62.9861 23.778 58.706C23.7911 61.0063 24.9621 63.4131 27.581 64.9255C29.4145 65.9844 31.14 66.4802 33.5386 66.6189L33.2906 63.8483L36.8661 66.5522C41.4802 66.1248 45.4127 64.3935 48.4797 61.5892V61.5892Z" fill="#FFB5CC"/>
<path d="M58.3346 15.6654C52.1016 9.43264 43.8146 6 35 6C27.6993 6 20.7796 8.33772 14.9889 12.7604C14.5645 13.0844 14.4833 13.6912 14.8074 14.1156C15.1314 14.5399 15.7383 14.6206 16.1625 14.2971C21.6132 10.134 28.1271 7.93359 35 7.93359C43.2982 7.93359 51.0996 11.165 56.9673 17.0327C62.835 22.9004 66.0664 30.7018 66.0664 39C66.0664 47.2981 62.835 55.0996 56.9673 60.9672C51.0996 66.835 43.2982 70.0664 35 70.0664C26.7018 70.0664 18.9004 66.835 13.0327 60.9672C7.16502 55.0996 3.93359 47.2981 3.93359 39C3.93359 31.0018 6.9665 23.4044 12.4738 17.6072C12.8415 17.22 12.8258 16.6081 12.4387 16.2403C12.0516 15.8724 11.4397 15.8883 11.0719 16.2752C5.22175 22.4335 2 30.5039 2 39C2 47.8146 5.43264 56.1016 11.6654 62.3346C17.8984 68.5674 26.1854 72 35 72C43.8146 72 52.1016 68.5674 58.3346 62.3346C64.5674 56.1016 68 47.8146 68 39C68 30.1854 64.5674 21.8983 58.3346 15.6654V15.6654Z" fill="#A70D60" fill-opacity="0.58"/>
<path d="M17.3526 52.4861C17.1037 52.7799 17.1422 53.2645 17.4378 53.515C18.5656 54.4702 20.0894 55.6388 21.9282 56.7616L19.2914 57.4381C18.9009 57.5383 18.6656 57.936 18.7658 58.3265C18.7683 58.3366 18.7711 58.3465 18.774 58.3563C18.8863 58.7289 19.2737 58.9498 19.6542 58.8522L23.0824 57.9726C22.8955 60.0668 23.6075 62.188 24.998 63.7615C25.6216 64.4671 26.7155 63.5002 26.0919 62.7947C24.9402 61.4914 24.4051 59.8128 24.5261 58.1922C27.7608 59.7818 31.66 60.9922 35.9319 60.8754C38.5498 60.8039 41.1245 60.3886 43.5849 59.6409C44.4774 59.3696 44.0667 57.9686 43.1604 58.244C40.8249 58.9537 38.3794 59.348 35.8919 59.4161C31.7446 59.5293 27.9522 58.2983 24.83 56.7134C25.8808 53.6705 29.029 52.6162 31.9591 53.4623C33.8007 53.9942 35.6976 54.4728 37.6063 54.6847L37.5868 56.6037C37.5812 57.2 38.2852 57.5534 38.7597 57.1913L41.7624 54.8994C46.5518 54.8926 50.9111 54.1033 53.0288 53.6481C52.3091 55.4503 51.2406 57.5582 49.7532 59.1788L47.2058 59.5306C46.6397 59.6088 46.3802 60.3065 46.7574 60.7356L47.4496 61.5229C44.5913 63.9389 41.1073 65.3753 37.0784 65.7976L33.7308 63.2658C33.2427 62.8968 32.5083 63.2966 32.5634 63.9131L32.7344 65.8227C31.2644 65.6712 30.0849 65.352 28.9069 64.7975C28.0549 64.3966 27.4332 65.7174 28.2851 66.1184C29.8389 66.8498 31.4462 67.2288 33.4964 67.3474C33.9353 67.3728 34.3047 66.9913 34.2657 66.5535L34.1646 65.4241L36.4257 67.1341C36.571 67.2439 36.752 67.2955 36.9334 67.2788C41.6625 66.8408 45.7131 65.1076 48.9723 62.1276C49.2658 61.8593 49.2904 61.4055 49.028 61.107L48.7502 60.7911L50.2087 60.5897C50.3713 60.5672 50.5217 60.4906 50.6354 60.3721C52.7679 58.1509 54.1185 55.065 54.8758 52.8674C55.0625 52.3261 54.5549 51.7785 54.0009 51.9233C53.9419 51.9388 48.0211 53.4671 41.5194 53.4391C41.3583 53.4383 41.2014 53.491 41.0733 53.5887L39.062 55.124L39.073 54.0323C39.0765 53.652 38.7877 53.3321 38.4086 53.298C36.3598 53.1135 34.3381 52.6297 32.3644 52.0597C29.4566 51.2199 26.2415 51.8518 24.3994 54.4036L24.2141 52.3696C24.1771 51.9682 23.8224 51.6723 23.4209 51.7089C23.0194 51.7454 22.7236 52.1006 22.7601 52.5021L23.0548 55.737C21.1281 54.5946 19.5374 53.3799 18.3813 52.4007C18.0738 52.1403 17.6132 52.1784 17.3526 52.4861V52.4861Z" fill="#990E59"/>
</svg>
